<svg width="25" height="48" viewBox="0 0 25 48" fill="none" xmlns="http://www.w3.org/2000/svg">
<rect width="25" height="48" fill="#1E1E1E"/>
<g clip-path="url(#clip0_0_1)">
<rect width="1440" height="1024" transform="translate(0 -531)" fill="white"/>
<path d="M17.3309 -276.679C11.0863 -273.765 3.80857 -274.424 -3.31195 -275.833C-6.18295 -273.834 -11.3935 -273.328 -11.7654 -270.354C-12.4019 -265.262 -16.1894 -259.341 -17.379 -253.987C-21.9185 -233.559 -26.8615 -212.684 -27.4204 -191.446C-28.3436 -156.363 -28.8436 -121.271 -28.8436 -86.0513C-28.8436 -63.1707 -21.4642 -42.0487 -20.3045 -19.2407C-19.5809 -5.01028 -16.8154 9.53589 -14.5327 23.613C-13.3328 31.0124 -11.4415 38.0239 -8.91898 44.9608C-7.65961 48.4241 -7.16693 54.0893 -5.36102 56.9788C-1.47061 63.2034 -0.594717 70.5935 6.26165 74.3733C13.9983 78.6384 16.1325 82.1828 23.5 87C26.944 89.2519 37.1643 89.9622 39.6274 93.3491C46.925 103.383 66.4223 102.521 76.4721 102.521C91.1274 102.521 109.204 105.857 122.014 98.2512C128.229 94.5611 129.13 83.128 129.13 76.9825C129.13 69.4383 126.874 56.8606 133.716 51.2861C139.015 46.9678 141.12 41.137 145.576 36.2635C148.467 33.1016 146.935 29.8827 148.58 26.1431C152.542 17.1391 150.5 8 153.324 -0.739258C153.324 -5.54324 156.962 -17.4556 160 -21C166.724 -28.8451 176.034 -33.7871 187.48 -34.105C201.619 -34.4978 215.475 -32.7362 229.069 -37.2677C239.092 -40.6086 248.464 -39.7978 259.193 -39.7978C262.904 -39.7978 267.815 -38.4985 270.104 -41.9325C275.976 -50.7401 286.202 -57.8658 292.717 -66.6801C296.459 -71.7423 304.317 -77.4602 306.87 -83.2049C308.54 -86.9626 308.51 -90.2744 310.981 -93.8788C315.462 -100.414 313.668 -116.848 312.009 -124.477C310.6 -130.96 306.533 -135.186 302.6 -140.369C298.278 -146.067 293.887 -154.805 287.103 -157.922C275.33 -163.332 257.346 -160.768 244.724 -160.768C235.177 -160.768 225.297 -159.983 215.944 -162.192C207.254 -164.244 200.782 -167.295 193.49 -172.47C186.941 -177.118 180.492 -183.714 173.565 -187.493C163.706 -192.87 163.472 -204.585 160.44 -214.217C156.917 -225.407 154.353 -236.997 149.687 -247.662C143.805 -261.107 136.264 -271.703 122.884 -278.102C112.076 -283.271 99.5129 -282.27 87.5413 -281.423C69.5681 -280.15 51.1513 -278.893 33.144 -278.893C27.6639 -278.893 22.4027 -279.046 17.3309 -276.679Z" fill="black"/>
<path d="M-17.4581 -278.893C-6.74542 -277.043 6.77026 -271.751 17.3309 -276.679C22.4027 -279.046 27.6639 -278.893 33.144 -278.893C51.1513 -278.893 69.5681 -280.15 87.5413 -281.423C99.5129 -282.27 112.076 -283.271 122.884 -278.102C136.264 -271.703 143.805 -261.107 149.687 -247.662C154.353 -236.997 156.917 -225.407 160.44 -214.217C163.472 -204.585 163.706 -192.87 173.565 -187.493C180.492 -183.714 186.941 -177.118 193.49 -172.47C200.782 -167.295 207.254 -164.244 215.944 -162.192C225.297 -159.983 235.177 -160.768 244.724 -160.768C257.346 -160.768 275.33 -163.332 287.103 -157.922C293.887 -154.805 298.278 -146.067 302.6 -140.369C306.533 -135.186 310.6 -130.96 312.009 -124.477C313.668 -116.848 315.462 -100.414 310.981 -93.8788C308.51 -90.2744 308.54 -86.9626 306.87 -83.2049C304.317 -77.4602 296.459 -71.7423 292.717 -66.6801C286.202 -57.8658 275.976 -50.7401 270.104 -41.9325C267.815 -38.4985 262.904 -39.7978 259.193 -39.7978C248.464 -39.7978 239.092 -40.6086 229.069 -37.2677C215.475 -32.7362 201.619 -34.4978 187.48 -34.105C176.034 -33.7871 166.724 -28.8451 160 -21C156.962 -17.4556 153.324 -5.54323 153.324 -0.739258C150.5 8 152.542 17.1391 148.58 26.1431C146.935 29.8826 148.467 33.1016 145.576 36.2635C141.12 41.137 139.015 46.9678 133.716 51.2861C126.874 56.8606 129.13 69.4383 129.13 76.9825C129.13 83.128 128.229 94.5611 122.014 98.2512C109.204 105.857 91.1274 102.521 76.4721 102.521C66.4223 102.521 46.925 103.383 39.6274 93.3491C37.1643 89.9622 26.944 89.2519 23.5 87C16.1325 82.1828 13.9983 78.6384 6.26165 74.3733C-0.594718 70.5935 -1.47061 63.2034 -5.36102 56.9788C-7.16693 54.0893 -7.65961 48.4241 -8.91898 44.9608C-11.4415 38.0239 -13.3328 31.0124 -14.5327 23.613C-16.8154 9.53588 -19.5809 -5.01029 -20.3045 -19.2407C-21.4642 -42.0487 -28.8436 -63.1707 -28.8436 -86.0513C-28.8436 -121.271 -28.3436 -156.363 -27.4204 -191.446C-26.8615 -212.684 -21.9185 -233.559 -17.379 -253.987C-16.1893 -259.341 -12.4019 -265.262 -11.7654 -270.354C-11.3091 -274.003 -3.56989 -273.936 -1.80306 -277.47" stroke="black" stroke-linecap="round"/>
<path d="M17.9292 14.2801C15.4407 14.1116 12.9583 13.946 10.4669 13.7925C10.0994 11.6673 9.73182 9.54521 9.35223 7.42306C8.32794 1.67971 7.90618 -4.91855 1.67307 5.44237C0.151699 7.9739 -1.3757 10.5084 -2.89707 13.046C-5.1023 12.9376 -7.30754 12.8353 -9.50976 12.7389C-17.8276 12.3747 -21.1535 12.6607 -14.342 19.3582C-12.7062 20.9687 -11.0763 22.5911 -9.45554 24.2166C-11.4047 27.6181 -13.3117 31.0406 -15.1434 34.4993C-19.0025 41.7868 -18.6591 46.5248 -9.83814 40.7032C-6.49715 38.4998 -3.21339 36.2091 0.064333 33.9545C2.45334 36.4378 4.82728 38.9302 7.1952 41.4317C14.8051 49.4657 17.188 49.6674 14.6635 37.0669C13.8922 33.22 13.1843 29.358 12.4974 25.4899C14.6273 24.033 16.7512 22.5671 18.857 21.0771C25.9759 16.0501 25.8041 14.822 17.9292 14.2801Z" fill="white"/>
</g>
<defs>
<clipPath id="clip0_0_1">
<rect width="1440" height="1024" fill="white" transform="translate(0 -531)"/>
</clipPath>
</defs>
</svg>
